<svg width="21" height="21" viewBox="0 0 21 21" fill="none" xmlns="http://www.w3.org/2000/svg">
<path d="M7.14054 0.760498C4.58846 1.67196 2.47909 3.573 1.22909 6.02091C0.52596 7.40112 0.473877 7.71362 0.473877 10.5001C0.473877 13.2865 0.52596 13.599 1.22909 14.9792C2.21867 16.9324 3.93742 18.6511 5.91659 19.6928C7.427 20.5001 7.63534 20.5261 10.4999 20.5261C13.3645 20.5261 13.5728 20.5001 15.0572 19.6928C17.0624 18.6511 18.651 17.0626 19.6926 15.0574C20.4999 13.573 20.526 13.3647 20.526 10.5001C20.526 7.6355 20.4999 7.42716 19.6926 5.91675C18.651 3.93758 16.9322 2.21883 14.9791 1.25529C13.703 0.604248 13.1301 0.50008 10.8905 0.421955C8.9895 0.369871 7.97388 0.447996 7.14054 0.760498ZM13.8853 2.84383C15.7864 3.72925 17.1666 5.08341 18.078 6.98446C18.703 8.28654 18.8333 8.8855 18.8333 10.5001C18.8333 12.1147 18.703 12.7136 18.078 14.0157C16.5937 17.1147 13.8853 18.8334 10.4999 18.8334C7.1145 18.8334 4.40617 17.1147 2.92179 14.0157C2.29679 12.7136 2.16659 12.1147 2.16659 10.5001C2.16659 7.11466 3.88534 4.40633 6.98429 2.92196C9.11971 1.88029 11.776 1.85425 13.8853 2.84383Z" fill="black"/>
<path d="M12.1926 7.37523C11.2812 8.28669 10.4218 8.93773 10.1093 8.93773C9.40619 8.93773 8.93744 9.40648 8.93744 10.1096C8.93744 10.969 7.63536 12.0627 6.61973 12.0627C6.15098 12.0627 5.55203 12.1929 5.23953 12.3492C4.71869 12.6356 4.71869 12.6356 5.31765 13.2606C5.63015 13.5992 6.17703 13.8856 6.51557 13.8856C6.95828 13.8856 7.11453 14.0419 7.11453 14.4846C7.11453 14.8231 7.37494 15.344 7.71348 15.6565C8.49473 16.3856 8.93744 15.995 8.93744 14.5367C8.93744 13.7034 9.09369 13.3127 9.66661 12.7659C10.0572 12.3752 10.6301 12.0627 10.9166 12.0627C11.5937 12.0627 12.0624 11.594 12.0624 10.9169C12.0624 10.6044 12.7395 9.69294 13.6249 8.80752L15.1874 7.21898L14.4583 6.51586L13.7291 5.81273L12.1926 7.37523Z" fill="black"/>
</svg>
